<svg xmlns="http://www.w3.org/2000/svg" viewBox="0 0 691 113"><style>.st0{display:none}.st1{display:inline}.st2{fill:#231f20}.st3{fill:#0067a5}</style><g id="Tighter_Kerning"><path class="st2" d="M334.464 77.89c.376 4.536 1.393 8.39 3.048 11.556 1.653 3.166 3.78 5.74 6.38 7.726 2.598 1.985 5.601 3.427 9.003 4.325 3.402.898 7.041 1.347 10.918 1.347 4.536 0 8.458-.566 11.768-1.702 3.308-1.132 6.001-2.668 8.08-4.608 2.08-1.936 3.616-4.182 4.608-6.733.993-2.555 1.489-5.246 1.489-8.084 0-3.97-.898-7.182-2.693-9.639-1.796-2.457-4.136-4.469-7.018-6.027-2.885-1.559-6.193-2.812-9.926-3.755a524.168 524.168 0 0 0-11.485-2.766 129.15 129.15 0 0 1-11.485-3.189c-3.734-1.227-7.042-2.883-9.924-4.963-2.885-2.078-5.223-4.75-7.018-8.011-1.796-3.261-2.695-7.395-2.695-12.407 0-3.495.732-6.897 2.198-10.207 1.464-3.308 3.636-6.239 6.522-8.792 2.882-2.551 6.497-4.584 10.847-6.095 4.346-1.512 9.358-2.27 15.029-2.27 5.765 0 10.798.806 15.1 2.412 4.301 1.608 7.869 3.806 10.705 6.591a27.204 27.204 0 0 1 6.38 9.713c1.417 3.687 2.127 7.611 2.127 11.768h-9.216c0-3.874-.687-7.229-2.057-10.066-1.37-2.836-3.238-5.152-5.599-6.948-2.364-1.795-5.059-3.119-8.082-3.97a34.487 34.487 0 0 0-9.358-1.276c-4.916 0-9.052.687-12.406 2.057-3.357 1.37-6.027 3.144-8.011 5.316-1.985 2.176-3.357 4.586-4.112 7.231-.759 2.648-.9 5.295-.426 7.941.568 3.31 1.891 5.954 3.97 7.939 2.078 1.985 4.631 3.616 7.656 4.891 3.025 1.278 6.356 2.317 9.996 3.119 3.638.804 7.348 1.655 11.13 2.553 3.78.898 7.444 1.961 10.988 3.191 3.546 1.23 6.686 2.883 9.43 4.959 2.74 2.083 4.938 4.752 6.593 8.012 1.651 3.261 2.48 7.352 2.48 12.266 0 9.45-3.261 16.776-9.783 21.977-6.522 5.197-15.691 7.797-27.506 7.797-5.295 0-10.209-.687-14.745-2.057-4.536-1.37-8.46-3.45-11.768-6.239-3.31-2.785-5.884-6.239-7.728-10.349-1.844-4.114-2.765-8.956-2.765-14.534h9.361zM414.547 73.637c0 3.97.517 7.726 1.559 11.273 1.038 3.544 2.574 6.616 4.608 9.213 2.03 2.604 4.608 4.68 7.726 6.239 3.121 1.562 6.71 2.34 10.775 2.34 5.578 0 10.352-1.464 14.323-4.393 3.97-2.929 6.612-7.092 7.937-12.477h9.499c-1.038 3.499-2.408 6.733-4.11 9.711a29.877 29.877 0 0 1-6.382 7.797c-2.551 2.223-5.578 3.948-9.073 5.178-3.499 1.227-7.563 1.842-12.194 1.842-5.861 0-10.915-.993-15.168-2.978-4.253-1.985-7.752-4.703-10.492-8.152-2.744-3.45-4.774-7.514-6.099-12.194-1.325-4.68-1.985-9.711-1.985-15.1 0-5.386.781-10.443 2.34-15.168 1.559-4.727 3.782-8.864 6.665-12.407 2.88-3.546 6.401-6.333 10.564-8.365 4.155-2.032 8.88-3.049 14.176-3.049 10.115 0 18.055 3.474 23.822 10.422 5.763 6.946 8.597 17.038 8.507 30.27h-56.998zm47.92-7.088c0-3.593-.494-6.971-1.487-10.137-.993-3.168-2.461-5.908-4.397-8.226-1.936-2.315-4.37-4.157-7.299-5.529-2.932-1.368-6.288-2.055-10.069-2.055-3.782 0-7.114.708-9.994 2.127-2.883 1.417-5.34 3.31-7.375 5.671-2.034 2.364-3.665 5.104-4.891 8.224-1.23 3.117-2.034 6.427-2.408 9.926h47.92zM480.867 108.374V6.29h8.507v102.084h-8.507zM506.766 73.637c0 3.97.517 7.726 1.559 11.273 1.038 3.544 2.574 6.616 4.608 9.213 2.03 2.604 4.608 4.68 7.726 6.239 3.121 1.562 6.71 2.34 10.779 2.34 5.574 0 10.349-1.464 14.319-4.393 3.97-2.929 6.616-7.092 7.941-12.477h9.499c-1.042 3.499-2.412 6.733-4.114 9.711a29.943 29.943 0 0 1-6.378 7.797c-2.555 2.223-5.578 3.948-9.077 5.178-3.495 1.227-7.563 1.842-12.19 1.842-5.865 0-10.919-.993-15.172-2.978s-7.752-4.703-10.492-8.152c-2.744-3.45-4.774-7.514-6.099-12.194s-1.981-9.711-1.981-15.1c0-5.386.777-10.443 2.336-15.168 1.562-4.727 3.782-8.864 6.665-12.407 2.883-3.546 6.401-6.333 10.564-8.365 4.159-2.032 8.884-3.049 14.179-3.049 10.111 0 18.052 3.474 23.818 10.422 5.763 6.946 8.601 17.038 8.507 30.27h-56.997zm47.923-7.088c0-3.593-.498-6.971-1.491-10.137-.993-3.168-2.457-5.908-4.393-8.226-1.94-2.315-4.374-4.157-7.303-5.529-2.932-1.368-6.288-2.055-10.066-2.055-3.782 0-7.114.708-9.998 2.127-2.883 1.417-5.34 3.31-7.371 5.671-2.034 2.364-3.665 5.104-4.895 8.224-1.227 3.117-2.03 6.427-2.408 9.926h47.925zM625.839 58.042c-1.513-5.482-4.11-9.76-7.797-12.834-3.687-3.07-8.367-4.606-14.036-4.606-4.352 0-8.084.898-11.202 2.693a22.684 22.684 0 0 0-7.658 7.159c-1.985 2.978-3.45 6.335-4.393 10.067a45.702 45.702 0 0 0-1.419 11.273c0 3.876.449 7.654 1.347 11.341.898 3.687 2.34 6.997 4.325 9.926 1.985 2.929 4.536 5.269 7.654 7.016 3.121 1.751 6.899 2.623 11.345 2.623 6.329 0 11.413-1.747 15.24-5.246 3.831-3.495 6.261-8.314 7.303-14.462h9.073c-.759 4.068-1.963 7.778-3.616 11.13-1.653 3.359-3.782 6.239-6.378 8.65-2.6 2.412-5.695 4.28-9.288 5.601s-7.703 1.985-12.334 1.985c-5.861 0-10.919-.993-15.172-2.978s-7.752-4.703-10.492-8.152c-2.744-3.45-4.774-7.537-6.095-12.266-1.325-4.725-1.985-9.783-1.985-15.168 0-5.106.728-9.998 2.197-14.674 1.464-4.682 3.616-8.814 6.45-12.409 2.838-3.591 6.356-6.45 10.564-8.577 4.204-2.127 9.05-3.191 14.534-3.191 8.507 0 15.383 2.034 20.629 6.097 5.246 4.065 8.529 10.4 9.854 19.001h-8.65zM669.895 108.657c-1.042.189-2.412.517-4.11.993-1.702.472-3.593.71-5.672.71-4.253 0-7.492-1.064-9.711-3.189-2.223-2.129-3.333-5.933-3.333-11.413V42.019h-10.352v-7.09h10.352V14.514h8.507V34.93h13.753v7.09h-13.753v50.333c0 1.796.045 3.355.14 4.68s.377 2.408.853 3.261c.472.849 1.204 1.464 2.197 1.842s2.385.566 4.182.566c1.136 0 2.291-.091 3.476-.283a40.705 40.705 0 0 0 3.472-.71v6.948zM675.737 6.451h-2.906v8.261h-1.128V6.451h-2.906v-.867h6.94v.867zm11.059 8.261h-1.128V6.537h-.045l-3.144 8.175h-.736l-3.144-8.175h-.042v8.175h-1.128V5.584h2.08l2.602 6.743h.045l2.557-6.743h2.083v9.128z"/><path class="st3" d="M42.451 108.893v-36.3h39.98V48.486h-39.98V29.705h50.205V5.595H5.889v103.298h36.562zM253.106 79.91l17.978 28.979 41.061-.007-37.967-53.65 37.638-49.648-41.059.008-15.949 26.403-15.82-26.397-41.058.007 35.65 49.635-39.506 53.664 41.059-.008 17.973-28.986z"/><path class="st3" d="M92.121 56.389c0 35.143 23.397 55.235 58.414 55.235 33.004 0 58.572-19.804 58.572-54.947v1.499c0-35.143-25.567-54.947-58.572-54.947-35.017 0-58.414 20.092-58.414 55.235v-2.075zm28.975 1.037c0-17.641 11.741-27.72 29.309-27.72 16.561 0 29.393 9.933 29.393 27.574v.293c0 17.641-12.832 27.574-29.393 27.574-17.568 0-29.309-10.08-29.309-27.721z"/></g></svg>