<svg id="Layer_1" xmlns="http://www.w3.org/2000/svg" viewBox="0 0 496.713 161.38"><style>.st0{fill:#0067a5}.st1{fill:none}.st2{fill:#231f20}</style><path class="st0" d="M28.687 159.09v-25.818h25.818V116.06H28.687v-14.344h34.424V84.504H0v74.586h26.94zM184.99 138.163l12.977 20.927h29.648l-27.407-38.743 27.183-35.843h-29.647l-11.519 19.063-11.419-19.063H145.16l25.735 35.843-28.533 38.743h29.647l12.981-20.927z"/><path class="st1" d="M86.141 69.633l.25-.056-.185-.182zM98.471 29.703c-5.457-9.368-13.306-17.652-23.885-19.879v16.638a27.306 27.306 0 0 1 8.277-1.308c5.379-.001 10.897 1.775 15.608 4.549zM140.565 26.462V9.824c-10.58 2.227-18.426 10.511-23.883 19.879 4.71-2.773 10.229-4.55 15.605-4.55 2.749 0 5.575.443 8.278 1.309zM114.986 19.096c-2.001-1.35-4.964-2.324-8.477-2.324-3.539 0-6.484.979-8.474 2.322 3.322 4.272 6.144 9.129 8.477 14.23 2.303-5.025 5.124-9.904 8.474-14.228z"/><path class="st1" d="M95.536 84.048a43.538 43.538 0 0 1 1.381 4.85c.306 1.344.569 2.709.778 4.104.038.251.067.511.102.764.186 1.352.34 2.726.459 4.13.014.169.034.335.048.506.121 1.522.204 3.085.271 4.672.006.151.02.292.026.444l-.007.003c.139 3.528.185 7.214.248 12.541h4.432V46.597S92.72 31.695 82.594 31.695c-8.858 0-16.654 7.295-16.654 15.486 0 8.483 7.242 14.792 15.72 14.792 3.515 0 8.176.147 10.14-1.464v-7.56H74.35c-2.626-.149-3.971-5.737-3.971-5.737h27.159v17.019c1 0-2.5 2.194-5.355 3.422-1.609.692-3.619 1.433-5.789 1.925 4.449 4.495 7.252 9.197 9.054 14.229l.019-.005c.025.08.041.165.069.246zM138.667 52.949h-18.183v7.56c2.691 1.611 7.357 1.464 10.868 1.464 8.483 0 15.722-6.309 15.722-14.792 0-8.191-7.797-15.486-16.653-15.486-10.126 0-21.411 14.902-21.411 14.902v69.464h5.163c.063-5.312.108-8.985.246-12.501l-.008-.004c.007-.183.023-.354.031-.536.066-1.557.147-3.091.265-4.585.015-.184.036-.362.052-.545.118-1.396.271-2.762.456-4.106.036-.258.065-.522.104-.779a55.287 55.287 0 0 1 .986-4.986 43.396 43.396 0 0 1 1.181-3.992c.029-.082.045-.169.074-.251a.133.133 0 0 1 .019.005c1.803-5.022 4.604-9.717 9.046-14.204-2.174-.492-4.181-1.233-5.789-1.925-2.857-1.228-6.361-3.422-6.089-3.422V47.212h27.89c-.001 0-1.341 5.589-3.97 5.737z"/><path class="st1" d="M120.487 121.797h-28.69l.006-3.272c-.104-4.163-.124-8.07-.205-11.749-4.591 3.328-7.321 8.441-7.321 14.819 0 12.523 8.719 19.677 21.766 19.677 12.299 0 21.828-7.051 21.828-19.573 0-5.606-2.358-11.107-7.185-14.773-.078 3.635-.1 7.492-.202 11.599l.003 3.272zM126.805 69.395l-.18.182.245.056z"/><path class="st0" d="M136.119 69.6l1.275-.746c8.219-2.733 18.575-10.271 18.575-21.862 0-8.2-4.058-14.276-9.667-18.039V2.064c-11.052-.526-20.069 4.104-27.193 11.256-3.38-2.548-8.051-3.977-12.967-3.977-4.898 0-9.588 1.424-12.982 3.98C85.999 6.18 76.982 1.645 65.979 2.022v26.932c-5.618 3.763-9.668 9.838-9.668 18.039 0 11.591 10.353 19.129 18.57 21.862l1.275.746c6.96 4.601 10.811 9.817 12.998 15.854-15.364 5.336-25.002 18.228-25.002 35.738 0 25.259 16.816 39.699 41.984 39.699 23.721 0 42.097-14.234 42.097-39.492 0-15.194-8.13-30.039-25.104-35.961 2.188-6.031 6.038-11.242 12.99-15.839zm4.446-59.776v16.638a27.297 27.297 0 0 0-8.278-1.308c-5.376 0-10.895 1.776-15.605 4.55 5.456-9.369 13.303-17.653 23.883-19.88zm-34.056 6.949c3.513 0 6.476.973 8.477 2.324-3.351 4.324-6.172 9.203-8.474 14.229-2.334-5.101-5.155-9.958-8.477-14.23 1.99-1.344 4.935-2.323 8.474-2.323zM74.585 9.824c10.58 2.227 18.428 10.511 23.885 19.879-4.711-2.773-10.228-4.55-15.608-4.55-2.749 0-5.572.443-8.277 1.308V9.824zm11.806 59.753l-.25.056.065-.238.185.182c2.17-.492 4.18-1.233 5.789-1.925 2.854-1.228 6.355-3.422 5.355-3.422V47.212H70.376s1.345 5.589 3.971 5.737h17.45v7.56c-1.964 1.611-6.624 1.464-10.14 1.464-8.479 0-15.72-6.309-15.72-14.792 0-8.191 7.796-15.486 16.654-15.486 10.126 0 20.68 14.902 20.68 14.902v69.464H98.84c-.063-5.327-.109-9.013-.248-12.541l.007-.003c-.006-.152-.019-.293-.026-.444-.067-1.588-.15-3.151-.271-4.672-.013-.17-.033-.336-.048-.506a79.582 79.582 0 0 0-.459-4.13c-.035-.253-.064-.512-.102-.764a55.513 55.513 0 0 0-.986-4.984 43.222 43.222 0 0 0-1.173-3.97c-.028-.081-.044-.166-.073-.247l-.019.005c-1.799-5.03-4.602-9.733-9.051-14.228zm41.478 52.122c0 12.522-9.531 19.573-21.831 19.573-13.048 0-21.768-7.155-21.768-19.677 0-6.378 2.731-11.491 7.322-14.819.081 3.678.102 7.586.205 11.749l-.006 3.272H120.484l-.003-3.272c.102-4.107.124-7.963.202-11.599 4.828 3.667 7.186 9.168 7.186 14.773zm-13.122-74.487v17.019c-.272 0 3.232 2.194 6.089 3.422 1.608.692 3.615 1.433 5.789 1.925l.181-.182.065.238-.245-.056c-4.442 4.487-7.243 9.182-9.046 14.204a.133.133 0 0 1-.019-.005c-.029.082-.046.169-.074.251a43.304 43.304 0 0 0-1.385 4.856 56.002 56.002 0 0 0-.782 4.122c-.038.257-.068.521-.104.779a78.783 78.783 0 0 0-.456 4.106c-.015.183-.037.361-.052.545a126.569 126.569 0 0 0-.265 4.585c-.008.182-.024.353-.031.536l.008.004c-.138 3.516-.183 7.189-.246 12.501h-5.163V46.597s11.286-14.902 21.411-14.902c8.857 0 16.653 7.295 16.653 15.486 0 8.483-7.239 14.792-15.722 14.792-3.512 0-8.177.147-10.868-1.464v-7.56h18.183c2.629-.149 3.97-5.737 3.97-5.737h-27.891z"/><path class="st2" d="M243.646 136.505c.27 3.258 1 6.026 2.189 8.301 1.187 2.274 2.715 4.123 4.583 5.549 1.866 1.426 4.023 2.461 6.467 3.107 2.444.645 5.057.968 7.842.968 3.258 0 6.075-.407 8.452-1.223 2.376-.813 4.31-1.917 5.804-3.31 1.494-1.391 2.597-3.004 3.31-4.836a15.881 15.881 0 0 0 1.069-5.807c0-2.852-.645-5.159-1.934-6.923-1.29-1.765-2.971-3.21-5.041-4.329-2.072-1.12-4.448-2.02-7.129-2.697a376.723 376.723 0 0 0-8.249-1.987 92.57 92.57 0 0 1-8.249-2.291c-2.682-.881-5.058-2.071-7.128-3.565-2.072-1.492-3.752-3.412-5.041-5.754-1.29-2.342-1.936-5.312-1.936-8.912 0-2.51.526-4.954 1.579-7.331 1.052-2.376 2.612-4.481 4.684-6.315 2.07-1.833 4.667-3.292 7.791-4.378 3.122-1.086 6.721-1.631 10.794-1.631 4.141 0 7.756.579 10.846 1.732 3.089 1.155 5.652 2.734 7.689 4.734a19.551 19.551 0 0 1 4.583 6.976c1.018 2.648 1.528 5.466 1.528 8.452h-6.62c0-2.783-.493-5.193-1.477-7.23-.984-2.037-2.326-3.7-4.022-4.991-1.698-1.289-3.634-2.24-5.805-2.852a24.764 24.764 0 0 0-6.721-.916c-3.531 0-6.502.493-8.91 1.477-2.411.984-4.329 2.258-5.754 3.818-1.426 1.563-2.411 3.294-2.953 5.194a12.46 12.46 0 0 0-.306 5.704c.408 2.377 1.358 4.276 2.852 5.702 1.492 1.426 3.326 2.597 5.499 3.513 2.173.918 4.565 1.664 7.18 2.24 2.613.577 5.278 1.189 7.994 1.834a81.44 81.44 0 0 1 7.893 2.292c2.547.884 4.802 2.071 6.773 3.562 1.968 1.496 3.547 3.413 4.736 5.755 1.186 2.342 1.781 5.281 1.781 8.81 0 6.788-2.342 12.05-7.026 15.785-4.684 3.733-11.27 5.601-19.756 5.601-3.803 0-7.333-.493-10.591-1.477s-6.076-2.478-8.452-4.481c-2.377-2.001-4.226-4.481-5.55-7.433-1.324-2.955-1.986-6.433-1.986-10.439h6.718zM301.167 133.449c0 2.852.371 5.549 1.12 8.097.745 2.545 1.849 4.752 3.31 6.617 1.458 1.87 3.31 3.361 5.549 4.481 2.242 1.122 4.82 1.681 7.739 1.681 4.007 0 7.436-1.052 10.288-3.155s4.749-5.094 5.701-8.962h6.823a32.786 32.786 0 0 1-2.952 6.975 21.48 21.48 0 0 1-4.584 5.601c-1.833 1.597-4.007 2.836-6.517 3.719-2.513.881-5.432 1.323-8.759 1.323-4.21 0-7.84-.713-10.895-2.139s-5.568-3.378-7.536-5.855c-1.971-2.478-3.429-5.397-4.381-8.759-.951-3.361-1.426-6.975-1.426-10.846 0-3.868.561-7.501 1.681-10.895 1.12-3.395 2.716-6.366 4.787-8.912 2.068-2.547 4.598-4.549 7.588-6.009 2.985-1.46 6.379-2.19 10.182-2.19 7.265 0 12.969 2.495 17.111 7.486 4.139 4.989 6.175 12.238 6.11 21.742h-40.939zm34.419-5.09c0-2.581-.355-5.007-1.068-7.281-.713-2.276-1.767-4.244-3.158-5.908-1.391-1.663-3.139-2.986-5.243-3.971-2.106-.983-4.516-1.476-7.232-1.476s-5.11.508-7.178 1.528a16.536 16.536 0 0 0-5.297 4.073c-1.461 1.698-2.632 3.666-3.513 5.907a27.175 27.175 0 0 0-1.729 7.129h34.418zM348.802 158.4V85.076h6.11V158.4h-6.11zM367.404 133.449c0 2.852.371 5.549 1.12 8.097.745 2.545 1.849 4.752 3.31 6.617 1.458 1.87 3.31 3.361 5.549 4.481 2.242 1.122 4.82 1.681 7.742 1.681 4.004 0 7.433-1.052 10.285-3.155s4.752-5.094 5.704-8.962h6.823c-.748 2.513-1.732 4.836-2.955 6.975a21.529 21.529 0 0 1-4.581 5.601c-1.835 1.597-4.007 2.836-6.52 3.719-2.51.881-5.432 1.323-8.756 1.323-4.213 0-7.842-.713-10.897-2.139s-5.568-3.378-7.536-5.855c-1.971-2.478-3.429-5.397-4.381-8.759-.951-3.361-1.423-6.975-1.423-10.846 0-3.868.558-7.501 1.678-10.895 1.122-3.395 2.716-6.366 4.787-8.912 2.071-2.547 4.598-4.549 7.588-6.009 2.987-1.46 6.381-2.19 10.185-2.19 7.262 0 12.966 2.495 17.108 7.486 4.139 4.989 6.178 12.238 6.11 21.742h-40.94zm34.422-5.09c0-2.581-.358-5.007-1.071-7.281-.713-2.276-1.765-4.244-3.155-5.908-1.393-1.663-3.142-2.986-5.245-3.971-2.106-.983-4.516-1.476-7.23-1.476-2.716 0-5.11.508-7.181 1.528-2.071 1.018-3.836 2.377-5.294 4.073-1.461 1.698-2.632 3.666-3.516 5.907a27.414 27.414 0 0 0-1.729 7.129h34.421zM452.93 122.248c-1.087-3.937-2.952-7.01-5.601-9.218-2.648-2.205-6.01-3.309-10.082-3.309-3.126 0-5.807.645-8.046 1.934a16.29 16.29 0 0 0-5.5 5.142c-1.426 2.139-2.478 4.55-3.155 7.231a32.837 32.837 0 0 0-1.019 8.097c0 2.784.323 5.498.968 8.146.645 2.648 1.681 5.026 3.107 7.129a15.987 15.987 0 0 0 5.498 5.039c2.242 1.258 4.955 1.884 8.149 1.884 4.546 0 8.197-1.255 10.946-3.768 2.751-2.51 4.497-5.972 5.245-10.388h6.517c-.545 2.922-1.41 5.587-2.597 7.994-1.187 2.413-2.716 4.481-4.581 6.213-1.868 1.732-4.091 3.074-6.671 4.023-2.581.949-5.533 1.426-8.859 1.426-4.21 0-7.842-.713-10.897-2.139s-5.568-3.378-7.536-5.855c-1.971-2.478-3.429-5.413-4.378-8.81-.952-3.394-1.426-7.026-1.426-10.895 0-3.668.523-7.181 1.578-10.54 1.052-3.363 2.597-6.331 4.633-8.913 2.039-2.579 4.565-4.633 7.588-6.16 3.02-1.528 6.501-2.292 10.439-2.292 6.11 0 11.049 1.461 14.817 4.379 3.768 2.92 6.126 7.47 7.078 13.648h-6.215zM484.574 158.603c-.748.136-1.732.371-2.952.713-1.223.339-2.581.51-4.074.51-3.055 0-5.381-.764-6.975-2.291-1.597-1.529-2.394-4.261-2.394-8.198V110.74h-7.436v-5.092h7.436V90.983h6.11v14.664h9.878v5.092h-9.878v36.153c0 1.29.033 2.41.1 3.361.068.951.271 1.73.613 2.342.339.61.865 1.052 1.578 1.323.713.271 1.713.407 3.004.407.816 0 1.645-.065 2.497-.203a29.348 29.348 0 0 0 2.494-.51v4.991z"/><g><path class="st2" d="M488.77 85.192h-2.087v5.933h-.81v-5.933h-2.087v-.622h4.985v.622zm7.943 5.934h-.81v-5.872h-.032l-2.259 5.872h-.529l-2.259-5.872h-.03v5.872h-.81V84.57h1.494l1.869 4.843h.032l1.836-4.843h1.496v6.556z"/></g></svg>