<svg id="Layer_1" xmlns="http://www.w3.org/2000/svg" viewBox="0 0 494.5 158.9"><style>.st0{fill:#0067a5}.st1{fill:none}.st2{fill:#231f20}</style><path class="st0" d="M28.7 157.1v-25.8h25.8v-17.2H28.7V99.8h34.4V82.6H0v74.5h26.9zM185 136.2l13 20.9h29.6l-27.4-38.7 27.2-35.8h-29.7l-11.5 19-11.4-19h-29.6l25.7 35.8-28.5 38.7H172l13-20.9z"/><path class="st1" d="M86.1 67.7l.3-.1-.2-.2zM98.5 27.8C93 18.4 85.2 10.1 74.6 7.9v16.6c2.7-.9 5.5-1.3 8.3-1.3 5.3 0 10.9 1.8 15.6 4.6zM140.6 24.5V7.9c-10.6 2.2-18.4 10.5-23.9 19.9 4.7-2.8 10.2-4.5 15.6-4.5 2.7-.1 5.6.3 8.3 1.2zM115 17.1c-2-1.4-5-2.3-8.5-2.3s-6.5 1-8.5 2.3c3.3 4.3 6.1 9.1 8.5 14.2 2.3-4.9 5.1-9.8 8.5-14.2z"/><path class="st1" d="M95.5 82.1c.5 1.3.8 2.6 1.2 4 .1.3.1.6.2.9.3 1.3.6 2.7.8 4.1 0 .3.1.5.1.8.2 1.4.3 2.7.5 4.1v.5c.1 1.5.2 3.1.3 4.7v.4c.1 3.5.2 7.2.2 12.5h4.4V44.6S92.6 29.7 82.5 29.7c-8.9 0-16.7 7.3-16.7 15.5C65.8 53.7 73 60 81.5 60c3.5 0 8.2.1 10.1-1.5V51H74.3c-2.6-.1-4-5.7-4-5.7h27.2v17c1 0-2.5 2.2-5.4 3.4-1.6.7-3.6 1.4-5.8 1.9 4.4 4.5 7.3 9.2 9.1 14.2.1.1.1.2.1.3zM138.7 51h-18.2v7.6c2.7 1.6 7.4 1.5 10.9 1.5 8.5 0 15.7-6.3 15.7-14.8 0-8.2-7.8-15.5-16.7-15.5-10.1 0-21.4 14.9-21.4 14.9v69.5h5.2c.1-5.3.1-9 .2-12.5v-.5c.1-1.6.1-3.1.3-4.6 0-.2 0-.4.1-.5.1-1.4.3-2.8.5-4.1 0-.3.1-.5.1-.8.2-1.4.5-2.8.8-4.1.1-.3.1-.6.2-.9.3-1.4.7-2.7 1.2-4 0-.1 0-.2.1-.3 1.8-5 4.6-9.7 9-14.2-2.2-.5-4.2-1.2-5.8-1.9-2.9-1.2-6.4-3.4-6.1-3.4v-17h27.9c-.1-.1-1.4 5.5-4 5.6z"/><path class="st1" d="M120.5 119.8H91.8v-3.3c-.1-4.2-.1-8.1-.2-11.7-4.6 3.3-7.3 8.4-7.3 14.8 0 12.5 8.7 19.7 21.8 19.7 12.3 0 21.8-7.1 21.8-19.6 0-5.6-2.4-11.1-7.2-14.8-.1 3.6-.1 7.5-.2 11.6v3.3zM126.8 67.4l-.2.2.3.1z"/><path class="st0" d="M136.1 67.7l1.3-.7c8.2-2.8 18.6-10.4 18.6-22 0-8.2-4.1-14.3-9.7-18V.1c-11.1-.5-20.1 4.1-27.2 11.3-3.4-2.5-8.1-4-13-4s-9.6 1.4-13 4C86 4.2 77-.3 66 .1V27c-5.6 3.8-9.7 9.8-9.7 18 0 11.6 10.4 19.1 18.6 21.9l1.3.7c7 4.6 10.8 9.8 13 15.9-15.4 5.3-25 18.2-25 35.7 0 25.3 16.8 39.7 42 39.7 23.7 0 42.1-14.2 42.1-39.5 0-15.2-8.1-30-25.1-36 2.1-5.9 6-11.2 12.9-15.7zm4.5-59.8v16.6c-2.7-.9-5.5-1.3-8.3-1.3-5.4 0-10.9 1.8-15.6 4.5 5.4-9.3 13.3-17.6 23.9-19.8zm-34.1 6.9c3.5 0 6.5 1 8.5 2.3-3.4 4.3-6.2 9.2-8.5 14.2-2.3-5.1-5.2-10-8.5-14.2 2-1.3 5-2.3 8.5-2.3zM74.6 7.9C85.2 10.1 93 18.4 98.5 27.8c-4.7-2.8-10.2-4.5-15.6-4.5-2.7 0-5.6.4-8.3 1.3V7.9zm11.8 59.7l-.2.1.1-.2.1.1c2.2-.5 4.2-1.2 5.8-1.9 2.9-1.2 6.4-3.4 5.4-3.4v-17H70.4s1.3 5.6 4 5.7h17.5v7.6c-2 1.6-6.6 1.5-10.1 1.5-8.5 0-15.7-6.3-15.7-14.8 0-8.2 7.8-15.5 16.7-15.5 10.1 0 20.7 14.9 20.7 14.9v69.5h-4.4c-.1-5.3-.1-9-.2-12.5v-.4c-.1-1.6-.1-3.2-.3-4.7v-.5c-.1-1.4-.3-2.8-.5-4.1 0-.3-.1-.5-.1-.8-.2-1.4-.5-2.8-.8-4.1-.1-.3-.1-.6-.2-.9-.3-1.3-.7-2.7-1.2-4 0-.1 0-.2-.1-.2-2.1-5.2-4.9-9.9-9.3-14.4zm41.5 52.2c0 12.5-9.5 19.6-21.8 19.6-13 0-21.8-7.2-21.8-19.7 0-6.4 2.7-11.5 7.3-14.8.1 3.7.1 7.6.2 11.7v3.3h28.6v-3.3c.1-4.1.1-8 .2-11.6 4.9 3.6 7.3 9.1 7.3 14.8zm-13.2-74.5v17c-.3 0 3.2 2.2 6.1 3.4 1.6.7 3.6 1.4 5.8 1.9l.2-.2.1.2-.2-.1c-4.4 4.5-7.2 9.2-9 14.2 0 .1 0 .2-.1.3-.5 1.3-.8 2.6-1.2 4-.1.3-.1.6-.2.9-.3 1.3-.6 2.7-.8 4.1 0 .3-.1.5-.1.8-.2 1.3-.3 2.7-.5 4.1 0 .2 0 .4-.1.5-.1 1.5-.2 3-.3 4.6v.5c-.1 3.5-.2 7.2-.2 12.5H109V44.6s11.3-14.9 21.4-14.9c8.9 0 16.7 7.3 16.7 15.5 0 8.5-7.2 14.8-15.7 14.8-3.5 0-8.2.1-10.9-1.5V51h18.2c2.6-.1 4-5.7 4-5.7h-28z"/><path class="st2" d="M243.6 134.6c.3 3.3 1 6 2.2 8.3 1.2 2.3 2.7 4.1 4.6 5.5 1.9 1.4 4 2.5 6.5 3.1 2.4.6 5.1 1 7.8 1 3.3 0 6.1-.4 8.5-1.2 2.4-.8 4.3-1.9 5.8-3.3s2.6-3 3.3-4.8c.7-1.8 1.1-3.8 1.1-5.8 0-2.9-.6-5.2-1.9-6.9-1.3-1.8-3-3.2-5-4.3-2.1-1.1-4.4-2-7.1-2.7-2.7-.7-5.4-1.3-8.2-2-2.8-.6-5.6-1.4-8.2-2.3-2.7-.9-5.1-2.1-7.1-3.6-2.1-1.5-3.8-3.4-5-5.8-1.3-2.3-1.9-5.3-1.9-8.9 0-2.5.5-5 1.6-7.3 1.1-2.4 2.6-4.5 4.7-6.3 2.1-1.8 4.7-3.3 7.8-4.4 3.1-1.1 6.7-1.6 10.8-1.6 4.1 0 7.8.6 10.8 1.7 3.1 1.2 5.7 2.7 7.7 4.7s3.6 4.3 4.6 7c1 2.6 1.5 5.5 1.5 8.5h-6.6c0-2.8-.5-5.2-1.5-7.2s-2.3-3.7-4-5c-1.7-1.3-3.6-2.2-5.8-2.9-2.2-.6-4.4-.9-6.7-.9-3.5 0-6.5.5-8.9 1.5-2.4 1-4.3 2.3-5.8 3.8-1.4 1.6-2.4 3.3-3 5.2-.5 1.9-.6 3.8-.3 5.7.4 2.4 1.4 4.3 2.9 5.7 1.5 1.4 3.3 2.6 5.5 3.5 2.2.9 4.6 1.7 7.2 2.2 2.6.6 5.3 1.2 8 1.8 2.7.6 5.3 1.4 7.9 2.3 2.5.9 4.8 2.1 6.8 3.6s3.5 3.4 4.7 5.8c1.2 2.3 1.8 5.3 1.8 8.8 0 6.8-2.3 12-7 15.8-4.7 3.7-11.3 5.6-19.8 5.6-3.8 0-7.3-.5-10.6-1.5s-6.1-2.5-8.5-4.5c-2.4-2-4.2-4.5-5.6-7.4-1.3-3-2-6.4-2-10.4h6.4zM301.2 131.5c0 2.9.4 5.5 1.1 8.1.7 2.5 1.8 4.8 3.3 6.6 1.5 1.9 3.3 3.4 5.5 4.5s4.8 1.7 7.7 1.7c4 0 7.4-1.1 10.3-3.2s4.7-5.1 5.7-9h6.8c-.7 2.5-1.7 4.8-3 7-1.2 2.1-2.7 4-4.6 5.6-1.8 1.6-4 2.8-6.5 3.7-2.5.9-5.4 1.3-8.8 1.3-4.2 0-7.8-.7-10.9-2.1s-5.6-3.4-7.5-5.9c-2-2.5-3.4-5.4-4.4-8.8-1-3.4-1.4-7-1.4-10.8 0-3.9.6-7.5 1.7-10.9 1.1-3.4 2.7-6.4 4.8-8.9 2.1-2.5 4.6-4.5 7.6-6s6.4-2.2 10.2-2.2c7.3 0 13 2.5 17.1 7.5 4.1 5 6.2 12.2 6.1 21.7h-40.8zm34.4-5.1c0-2.6-.4-5-1.1-7.3-.7-2.3-1.8-4.2-3.2-5.9-1.4-1.7-3.1-3-5.2-4s-4.5-1.5-7.2-1.5-5.1.5-7.2 1.5c-2.1 1-3.8 2.4-5.3 4.1-1.5 1.7-2.6 3.7-3.5 5.9-.9 2.2-1.5 4.6-1.7 7.1h34.4zM348.8 156.5V83.1h6.1v73.3h-6.1zM367.4 131.5c0 2.9.4 5.5 1.1 8.1.7 2.5 1.8 4.8 3.3 6.6 1.5 1.9 3.3 3.4 5.5 4.5s4.8 1.7 7.7 1.7c4 0 7.4-1.1 10.3-3.2s4.8-5.1 5.7-9h6.8c-.7 2.5-1.7 4.8-3 7-1.2 2.1-2.7 4-4.6 5.6-1.8 1.6-4 2.8-6.5 3.7-2.5.9-5.4 1.3-8.8 1.3-4.2 0-7.8-.7-10.9-2.1s-5.6-3.4-7.5-5.9c-2-2.5-3.4-5.4-4.4-8.8-1-3.4-1.4-7-1.4-10.8 0-3.9.6-7.5 1.7-10.9 1.1-3.4 2.7-6.4 4.8-8.9 2.1-2.5 4.6-4.5 7.6-6s6.4-2.2 10.2-2.2c7.3 0 13 2.5 17.1 7.5 4.1 5 6.2 12.2 6.1 21.7h-40.8zm34.4-5.1c0-2.6-.4-5-1.1-7.3-.7-2.3-1.8-4.2-3.2-5.9-1.4-1.7-3.1-3-5.2-4s-4.5-1.5-7.2-1.5-5.1.5-7.2 1.5c-2.1 1-3.8 2.4-5.3 4.1-1.5 1.7-2.6 3.7-3.5 5.9-.9 2.2-1.5 4.6-1.7 7.1h34.4zM452.9 120.3c-1.1-3.9-3-7-5.6-9.2-2.6-2.2-6-3.3-10.1-3.3-3.1 0-5.8.6-8 1.9-2.2 1.3-4.1 3-5.5 5.1-1.4 2.1-2.5 4.6-3.2 7.2-.7 2.7-1 5.4-1 8.1 0 2.8.3 5.5 1 8.1.6 2.6 1.7 5 3.1 7.1 1.4 2.1 3.3 3.8 5.5 5 2.2 1.3 5 1.9 8.1 1.9 4.5 0 8.2-1.3 10.9-3.8 2.8-2.5 4.5-6 5.2-10.4h6.5c-.5 2.9-1.4 5.6-2.6 8-1.2 2.4-2.7 4.5-4.6 6.2-1.9 1.7-4.1 3.1-6.7 4-2.6.9-5.5 1.4-8.9 1.4-4.2 0-7.8-.7-10.9-2.1s-5.6-3.4-7.5-5.9c-2-2.5-3.4-5.4-4.4-8.8-1-3.4-1.4-7-1.4-10.9 0-3.7.5-7.2 1.6-10.5 1.1-3.4 2.6-6.3 4.6-8.9 2-2.6 4.6-4.6 7.6-6.2 3-1.5 6.5-2.3 10.4-2.3 6.1 0 11 1.5 14.8 4.4 3.8 2.9 6.1 7.5 7.1 13.6h-6zM484.6 156.7c-.7.1-1.7.4-3 .7-1.2.3-2.6.5-4.1.5-3.1 0-5.4-.8-7-2.3-1.6-1.5-2.4-4.3-2.4-8.2v-38.6h-7.4v-5.1h7.4V89h6.1v14.7h9.9v5.1h-9.9V145c0 1.3 0 2.4.1 3.4s.3 1.7.6 2.3c.3.6.9 1.1 1.6 1.3.7.3 1.7.4 3 .4.8 0 1.6-.1 2.5-.2.8-.1 1.7-.3 2.5-.5v5z"/><g><path d="M493 87.6c-1 1-2.2 1.5-3.6 1.5s-2.6-.5-3.5-1.5c-1-1-1.5-2.2-1.5-3.6s.5-2.6 1.5-3.5c1-1 2.2-1.5 3.5-1.5 1.4 0 2.6.5 3.6 1.5s1.5 2.2 1.5 3.5c0 1.4-.5 2.6-1.5 3.6zm-6.6-6.7c-.8.8-1.3 1.9-1.3 3.1 0 1.2.4 2.2 1.3 3.1.8.8 1.9 1.3 3.1 1.3s2.2-.4 3.1-1.3 1.3-1.9 1.3-3.1c0-1.2-.4-2.2-1.3-3.1-.8-.8-1.9-1.3-3.1-1.3-1.3.1-2.3.5-3.1 1.3zm2.9.3c.7 0 1.2.1 1.5.2.6.2.9.7.9 1.4 0 .5-.2.9-.5 1.1-.2.1-.5.2-.8.3.4.1.7.2.9.5.2.3.3.6.3.9V86.8h-.9v-.1V86c0-.6-.2-1.1-.5-1.3-.2-.1-.6-.2-1.1-.2h-.8v2.2h-1v-5.5h2zm1.1.9c-.2-.1-.6-.2-1.2-.2h-.8v2h.9c.4 0 .7 0 .9-.1.4-.2.6-.4.6-.9-.1-.4-.2-.7-.4-.8z"/></g></svg>